<svg width="56" height="23" viewBox="0 0 56 23" fill="none" xmlns="http://www.w3.org/2000/svg">
<g clip-path="url(#clip0_2230_5083)">
<path d="M36.5 3L33.0046 3.01463L28.5 12.4685C31.3052 14.1075 32.4777 11.488 32.7894 10.888C33.2718 9.9733 36.5 3 36.5 3Z" fill="#EF4123"/>
<path d="M36.0875 21.9925C31.9678 21.9925 28.5791 20.9388 26.0128 18.8539C24.7639 17.8378 23.7054 16.8519 22.7764 15.9788C20.4843 13.8413 18.8242 12.2757 16.2884 12.0575L11.7727 21.6839H1.5L10.5771 2.64933H10.699C11.3386 2.58159 11.9631 2.55901 12.5646 2.55901C19.936 2.55901 23.2942 6.67602 25.5178 9.40062C25.8986 9.86726 26.2641 10.3113 26.5992 10.6801C27.8785 12.0725 29.1426 12.8026 30.2468 12.8026C31.29 12.8026 32.1657 12.1403 32.775 10.8833C33.506 9.38556 36.0799 3.86863 36.7043 2.52891H35.4935L36.6967 0H48.5L38.0674 21.9323H37.9456C37.2754 21.9774 36.6662 22 36.0799 22" fill="white"/>
<path d="M48.508 2.66267L49.7533 0L36.6665 0.0459082L35.4445 2.61677H33.0158L28.3751 12.4258C27.8337 12.0815 27.2691 11.5918 26.6967 10.9721C26.3564 10.6048 25.9929 10.1534 25.6062 9.67898C23.3245 6.87858 19.8904 2.67033 12.2951 2.67033C11.6763 2.67033 10.1217 2.75449 10.1217 2.75449L0.5 22.9388H11.9239L16.085 13.9255C17.485 14.025 18.707 14.1856 22.3577 17.3839C25.8691 20.4521 27.7254 22.977 37.9582 22.977C44.9734 22.977 45.8473 23 45.8473 23L55.5 2.66267H48.508ZM33.2943 3.02994H36.4731C35.661 4.77445 33.3175 9.79375 32.6214 11.2246C32.2114 12.0585 31.4689 13.0532 30.2469 13.0532C29.7751 13.0532 29.2723 12.9079 28.7464 12.6324L33.302 3.02994H33.2943ZM38.0046 22.3955C37.4322 22.3955 36.6588 22.3649 36.1792 22.3496C33.2556 22.2578 29.3265 21.9059 26.0857 19.2738C21.7003 15.7083 19.7744 12.5635 15.9381 12.3034L11.3515 22.0971H1.374L10.4002 3.15236C11.0653 3.11411 11.6918 3.0988 12.2951 3.0988C20.9732 3.0988 24.0515 8.72256 26.3796 11.2552C27.7641 12.7625 29.0944 13.4817 30.2391 13.4817C31.3838 13.4817 32.3352 12.7701 33.0004 11.4158C33.8589 9.66367 37.1383 2.61677 37.1383 2.61677H35.9085L36.9295 0.466733H48.4461L37.9968 22.3955H38.0046Z" fill="#231F20"/>
</g>
<defs>
<clipPath id="clip0_2230_5083">
<rect width="55" height="23" fill="white" transform="translate(0.5)"/>
</clipPath>
</defs>
</svg>
