<svg width="76" height="32" viewBox="0 0 76 32" fill="none" xmlns="http://www.w3.org/2000/svg">
<path d="M50.0138 3.92969H45.0261L38.6035 17.7028C42.6074 20.0945 44.2745 16.2732 44.7254 15.4072C45.4087 14.0739 50.0138 3.94343 50.0138 3.94343" fill="#EF4123"/>
<path d="M49.1535 31.4636C43.4279 31.4636 38.7271 29.9653 35.1606 27.0238C33.4251 25.5942 31.963 24.1922 30.6648 22.9551C27.4808 19.9311 25.1715 17.718 21.6459 17.4019L15.3737 31.01H1.08008L13.7065 4.10989H13.8705C14.7587 4.01367 15.6333 3.97244 16.4669 3.97244C26.7156 3.97244 31.3754 9.78682 34.4636 13.6493C34.9966 14.3091 35.5022 14.9414 35.9668 15.4637C37.7432 17.4294 39.4924 18.474 41.0365 18.474C42.485 18.474 43.7012 17.5393 44.5484 15.7661C45.5733 13.6493 49.1398 5.84184 50.0144 3.94494H48.3336L50.0007 0.371094H66.3987L51.9002 31.3811H51.7225C50.7933 31.4499 49.9461 31.4773 49.1398 31.4773" fill="white"/>
<path d="M66.0157 3.69756L67.7238 0L49.8227 0.0687279L48.1556 3.64258H44.835L38.4808 17.2782C37.7429 16.7971 36.964 16.1236 36.1851 15.2576C35.7204 14.749 35.2148 14.1167 34.6956 13.4569C31.5663 9.56692 26.8792 3.71131 16.4938 3.71131C15.6466 3.71131 13.5148 3.82127 13.5148 3.82127L0.341797 31.9172H15.9609L21.6455 19.3813C23.5586 19.5187 25.2257 19.7387 30.2271 24.1922C35.0372 28.4671 37.5789 31.9722 51.5718 31.9722C61.1647 31.9722 62.3672 31.9997 62.3672 31.9997L75.5812 3.71131H66.0157V3.69756ZM45.2176 4.21989H49.5631C48.4562 6.65286 45.2449 13.6356 44.2884 15.6287C43.7281 16.7971 42.7169 18.1717 41.0361 18.1717C40.3939 18.1717 39.697 17.9655 38.9864 17.5806L45.2176 4.21989ZM51.6538 31.1475C50.8749 31.1475 49.8091 31.1063 49.1531 31.0788C45.1493 30.9413 39.7789 30.4602 35.3378 26.7901C29.3389 21.828 26.7016 17.4569 21.4542 17.0995L15.182 30.7214H1.54432L13.8975 4.38484C14.813 4.32986 15.6739 4.30237 16.4938 4.30237C28.3687 4.30237 32.5775 12.1236 35.7614 15.6562C37.6609 17.7455 39.4783 18.7627 41.0498 18.7627C42.6213 18.7627 43.9194 17.773 44.8213 15.8899C45.9965 13.4432 50.4786 3.65632 50.4786 3.65632H48.7978L50.1917 0.673533H65.9474L51.6538 31.175V31.1475Z" fill="#231F20"/>
</svg>
