<svg width="16" height="16" viewBox="0 0 16 16" fill="none" xmlns="http://www.w3.org/2000/svg">
<path d="M8.58992 10.4783C7.79992 10.4783 7.01992 10.1783 6.41992 9.57828L7.82992 8.15828C8.24992 8.57828 8.92992 8.57828 9.34992 8.15828L11.6899 5.81828C12.1099 5.39828 12.1099 4.71828 11.6899 4.29828C11.2699 3.87828 10.5899 3.87828 10.1799 4.29828L9.29992 5.17828L7.87992 3.76828L8.75992 2.88828C9.95992 1.68828 11.9099 1.68828 13.0999 2.88828C14.2999 4.08828 14.2999 6.03828 13.0999 7.22828L10.7599 9.56828C10.1599 10.1683 9.36992 10.4683 8.58992 10.4683V10.4783Z" fill="black"/>
<path d="M5.07 13.9995C4.28 13.9995 3.5 13.6995 2.9 13.0995C1.7 11.8995 1.7 9.94953 2.9 8.75953L5.24 6.41953C6.44 5.21953 8.39 5.21953 9.58 6.41953L8.17 7.83953C7.75 7.41953 7.07 7.41953 6.65 7.83953L4.31 10.1795C3.89 10.5995 3.89 11.2795 4.31 11.6995C4.73 12.1195 5.41 12.1195 5.82 11.6995L6.7 10.8195L8.12 12.2295L7.24 13.1095C6.64 13.7095 5.85 14.0095 5.07 14.0095V13.9995Z" fill="black"/>
</svg>
