<svg width="20" height="20" viewBox="0 0 20 20" fill="none" xmlns="http://www.w3.org/2000/svg">
<path d="M3.56677 7.16008C5.8776 4.85174 8.5701 3.79924 9.5826 4.81341C10.0301 5.26091 10.0726 6.03341 9.78594 6.95674C9.6376 7.42091 10.2226 7.16508 10.2226 7.16508C12.0901 6.38341 13.7201 6.33674 14.3143 7.18758C14.6309 7.63925 14.6001 8.27591 14.3076 9.01258C14.1718 9.35175 14.3476 9.40425 14.6076 9.48175C15.6593 9.80841 16.8309 10.5951 16.8309 11.9851C16.8309 14.2876 13.5143 17.1842 8.5276 17.1842C4.72344 17.1842 0.835938 15.3401 0.835938 12.3076C0.835938 10.7226 1.83927 8.88925 3.56677 7.16008ZM13.6776 11.9451C13.4801 9.95258 10.8593 8.57924 7.8251 8.88091C4.79177 9.18008 2.48927 11.0392 2.68594 13.0309C2.88344 15.0259 5.50427 16.3967 8.53844 16.0976C11.5726 15.7959 13.8726 13.9376 13.6776 11.9451ZM5.13677 12.0317C5.7651 10.7584 7.39677 10.0401 8.84177 10.4151C10.3351 10.8009 11.0976 12.2101 10.4884 13.5809C9.86844 14.9834 8.08594 15.7309 6.57594 15.2426C5.11594 14.7709 4.49844 13.3301 5.13677 12.0317ZM7.39927 12.5134C6.9301 12.3159 6.32344 12.5201 6.0326 12.9742C5.7376 13.4301 5.8751 13.9751 6.34177 14.1876C6.8151 14.4017 7.44594 14.1984 7.73844 13.7292C8.02677 13.2559 7.8751 12.7151 7.39927 12.5134ZM8.55427 12.0317C8.37427 11.9617 8.14927 12.0467 8.04344 12.2251C7.94094 12.4034 7.99844 12.6067 8.17927 12.6809C8.36177 12.7576 8.59677 12.6709 8.7026 12.4884C8.8051 12.3051 8.73927 12.1001 8.55427 12.0317ZM13.2993 2.43674C14.1328 2.25913 14.9985 2.30393 15.8092 2.56663C16.62 2.82933 17.3474 3.3007 17.9184 3.93341C18.4897 4.56709 18.8843 5.33979 19.0627 6.17406C19.2412 7.00833 19.1971 7.87485 18.9351 8.68674C18.9068 8.77437 18.8614 8.85554 18.8016 8.9256C18.7419 8.99567 18.6689 9.05325 18.5868 9.09506C18.5048 9.13686 18.4153 9.16206 18.3234 9.16921C18.2316 9.17637 18.1393 9.16533 18.0518 9.13675C17.8746 9.07911 17.7276 8.95356 17.6429 8.78765C17.5583 8.62173 17.5428 8.429 17.6001 8.25175C17.787 7.67512 17.8187 7.05946 17.6921 6.46669C17.5655 5.87392 17.285 5.32493 16.8789 4.87497C16.4727 4.425 15.9553 4.08992 15.3786 3.90342C14.8018 3.71692 14.1861 3.68559 13.5934 3.81258C13.4157 3.84029 13.234 3.7989 13.0858 3.69691C12.9376 3.59492 12.834 3.44006 12.7964 3.26413C12.7588 3.08819 12.7899 2.90452 12.8834 2.75082C12.9769 2.59711 13.1257 2.4842 13.2993 2.43674ZM13.8209 4.87591C14.2267 4.78927 14.6481 4.81098 15.0428 4.93885C15.4375 5.06672 15.7916 5.29625 16.0695 5.60435C16.3473 5.91246 16.5392 6.28829 16.6258 6.69406C16.7123 7.09982 16.6905 7.52123 16.5626 7.91591C16.5394 7.993 16.501 8.06467 16.4497 8.12671C16.3984 8.18875 16.3352 8.23991 16.2638 8.27718C16.1924 8.31445 16.1143 8.33708 16.0341 8.34374C15.9539 8.3504 15.8731 8.34096 15.7966 8.31596C15.72 8.29097 15.6493 8.25093 15.5884 8.1982C15.5276 8.14547 15.4779 8.08111 15.4423 8.00891C15.4067 7.9367 15.3858 7.8581 15.381 7.77774C15.3762 7.69737 15.3875 7.61685 15.4143 7.54091C15.4778 7.34808 15.4891 7.14188 15.4471 6.94326C15.4051 6.74464 15.3112 6.56068 15.1751 6.41008C15.0382 6.26018 14.8646 6.14859 14.6714 6.08633C14.4782 6.02407 14.2721 6.0133 14.0734 6.05508C13.9171 6.08856 13.7538 6.05856 13.6196 5.97167C13.4853 5.88477 13.3911 5.74811 13.3576 5.59174C13.3241 5.43538 13.3541 5.27211 13.441 5.13787C13.5279 5.00362 13.6646 4.90939 13.8209 4.87591Z" fill="white"/>
</svg>
