<svg width="24" height="24" viewBox="0 0 24 24" fill="none" xmlns="http://www.w3.org/2000/svg">
<path d="M22.065 6.91547C21.825 6.00047 21.105 5.29547 20.205 5.04047C18.57 4.60547 12 4.60547 12 4.60547C12 4.60547 5.43 4.60547 3.795 5.04047C2.895 5.28047 2.175 6.00047 1.935 6.91547C1.5 8.56547 1.5 12.0005 1.5 12.0005C1.5 12.0005 1.5 15.4355 1.935 17.0855C2.175 18.0005 2.895 18.7055 3.795 18.9605C5.43 19.3955 12 19.3955 12 19.3955C12 19.3955 18.57 19.3955 20.205 18.9605C21.105 18.7205 21.825 18.0005 22.065 17.0855C22.5 15.4355 22.5 12.0005 22.5 12.0005C22.5 12.0005 22.5 8.56547 22.065 6.91547ZM9.855 15.1205V8.88047L15.345 12.0005L9.855 15.1205Z" fill="#B3B3B3"/>
</svg>
