<svg width="24" height="24" viewBox="0 0 24 24" fill="none" xmlns="http://www.w3.org/2000/svg">
<path d="M14.7603 17.6547L13.6953 16.5897C16.2303 14.0547 16.2303 9.94473 13.6953 7.40973L14.7603 6.34473C17.8803 9.46473 17.8803 14.5197 14.7603 17.6397V17.6547Z" fill="white"/>
<path d="M17.775 20.6998L16.71 19.6348C18.75 17.5948 19.875 14.8798 19.875 11.9998C19.875 9.1198 18.75 6.4048 16.71 4.3648L17.775 3.2998C20.1 5.6248 21.375 8.7148 21.375 11.9998C21.375 15.2848 20.1 18.3748 17.775 20.6998Z" fill="white"/>
<path d="M11.325 5.77441V18.2244L6.36 15.1044H2.625V8.89441H6.36L11.325 5.77441Z" fill="white"/>
</svg>
