<svg width="24" height="24" viewBox="0 0 24 24" fill="none" xmlns="http://www.w3.org/2000/svg">
<path d="M22.065 6.91498C21.825 5.99998 21.105 5.29498 20.205 5.03998C18.57 4.60498 12 4.60498 12 4.60498C12 4.60498 5.43 4.60498 3.795 5.03998C2.895 5.27998 2.175 5.99998 1.935 6.91498C1.5 8.56498 1.5 12 1.5 12C1.5 12 1.5 15.435 1.935 17.085C2.175 18 2.895 18.705 3.795 18.96C5.43 19.395 12 19.395 12 19.395C12 19.395 18.57 19.395 20.205 18.96C21.105 18.72 21.825 18 22.065 17.085C22.5 15.435 22.5 12 22.5 12C22.5 12 22.5 8.56498 22.065 6.91498ZM9.855 15.12V8.87998L15.345 12L9.855 15.12Z" fill="white"/>
</svg>
