<svg width="16" height="16" viewBox="0 0 16 16" fill="none" xmlns="http://www.w3.org/2000/svg">
<path d="M14.7198 7.32C14.3798 4.02 11.6398 1.41 8.28977 1.27L8.26977 1.25H7.95977C4.25977 1.28 1.25977 4.3 1.25977 8C1.25977 8.23 1.26977 8.46 1.28977 8.68C1.62977 11.98 4.36977 14.59 7.71977 14.73L7.73977 14.75H8.04977C11.7498 14.72 14.7498 11.7 14.7498 8C14.7498 7.77 14.7398 7.54 14.7198 7.32ZM12.8498 6C12.9298 6.2 12.9898 6.42 13.0498 6.64C13.0798 6.75 13.1198 6.85 13.1498 6.97C13.1698 7.06 13.1598 7.16 13.1798 7.25H11.1698C11.0498 5.76 10.5698 4.34 9.76977 3.08C9.89977 3.13 10.0398 3.17 10.1598 3.23C10.3298 3.31 10.4798 3.4 10.6398 3.49C10.7698 3.57 10.8998 3.63 11.0198 3.72C11.1698 3.83 11.2998 3.95 11.4398 4.07C11.5498 4.17 11.6598 4.25 11.7598 4.36C11.8898 4.5 11.9998 4.65 12.1198 4.8C12.2098 4.91 12.2998 5.01 12.3798 5.13C12.4898 5.29 12.5698 5.47 12.6598 5.65C12.7198 5.77 12.7898 5.88 12.8398 6H12.8498ZM13.0598 9.32C12.9998 9.55 12.9398 9.78 12.8498 10C12.8098 10.09 12.7598 10.17 12.7098 10.26C12.6098 10.47 12.4998 10.69 12.3698 10.89C12.3298 10.96 12.2698 11.01 12.2298 11.08C12.0798 11.29 11.9198 11.49 11.7398 11.68C11.6998 11.72 11.6598 11.75 11.6198 11.79C11.4098 11.98 11.1998 12.17 10.9598 12.33C10.9298 12.35 10.8898 12.37 10.8598 12.39C10.6098 12.55 10.3498 12.7 10.0698 12.82C10.0298 12.84 9.98977 12.85 9.94977 12.87C9.89977 12.89 9.83977 12.9 9.78977 12.92C10.5798 11.67 11.0498 10.26 11.1698 8.77H13.1798C13.1698 8.86 13.1698 8.96 13.1498 9.05C13.1298 9.15 13.0898 9.24 13.0598 9.34V9.32ZM3.61977 10.87C3.50977 10.71 3.42977 10.52 3.33977 10.35C3.27977 10.23 3.20977 10.12 3.15977 10C3.07977 9.8 3.01977 9.58 2.95977 9.36C2.92977 9.25 2.88977 9.15 2.85977 9.03C2.83977 8.94 2.84977 8.84 2.82977 8.75H4.83977C4.95977 10.24 5.43976 11.66 6.23977 12.92C6.10977 12.87 5.96977 12.83 5.84977 12.77C5.67977 12.69 5.52977 12.6 5.36977 12.51C5.23977 12.43 5.10977 12.37 4.98977 12.28C4.83977 12.17 4.70977 12.05 4.56977 11.93C4.45977 11.83 4.34977 11.75 4.24977 11.64C4.11977 11.5 4.00977 11.35 3.88977 11.2C3.79977 11.09 3.70977 10.99 3.62977 10.87H3.61977ZM2.93977 6.68C2.99977 6.45 3.05977 6.22 3.14977 6C3.18977 5.91 3.23977 5.83 3.28977 5.74C3.38977 5.53 3.49977 5.31 3.62977 5.12C3.66977 5.05 3.72977 5 3.76977 4.93C3.91977 4.72 4.07977 4.52 4.25977 4.33C4.29977 4.29 4.33977 4.26 4.37977 4.22C4.58977 4.03 4.79977 3.84 5.03977 3.68C5.06977 3.66 5.10977 3.64 5.13977 3.62C5.38977 3.46 5.64977 3.31 5.92977 3.19C5.96977 3.17 6.00977 3.16 6.04977 3.14C6.09977 3.12 6.15977 3.11 6.20977 3.09C5.41977 4.34 4.94977 5.75 4.82977 7.24H2.81977C2.82977 7.15 2.82977 7.05 2.84977 6.96C2.86977 6.86 2.90977 6.77 2.93977 6.67V6.68ZM6.32977 7.25C6.46977 5.76 7.04977 4.37 7.99977 3.18C8.93977 4.35 9.51976 5.75 9.65977 7.25H6.31977H6.32977ZM9.66977 8.75C9.52977 10.24 8.94977 11.63 7.99977 12.82C7.05977 11.65 6.47977 10.25 6.33977 8.75H9.67977H9.66977Z" fill="#DE3111"/>
</svg>
