<svg width="20" height="20" viewBox="0 0 20 20" fill="none" xmlns="http://www.w3.org/2000/svg">
<g clip-path="url(#clip0_1637_47005)">
<path d="M11.1375 9.54922H16.9375V3.74922H14.4375V5.24922C13.2 4.22422 11.6375 3.63672 10 3.63672C6.175 3.63672 3.0625 6.74922 3.0625 10.5617C3.0625 14.3742 6.175 17.4992 10 17.4992C13.825 17.4992 16.9375 14.3867 16.9375 10.5617H14.4375C14.4375 13.0117 12.45 14.9992 10 14.9992C7.55 14.9992 5.5625 13.0117 5.5625 10.5617C5.5625 8.11172 7.55 6.13672 10 6.13672C10.9625 6.13672 11.8875 6.47422 12.65 7.04922H11.1375V9.54922Z" fill="black"/>
</g>
<defs>
<clipPath id="clip0_1637_47005">
<rect width="20" height="20" fill="white"/>
</clipPath>
</defs>
</svg>
