<svg width="20" height="20" viewBox="0 0 20 20" fill="none" xmlns="http://www.w3.org/2000/svg">
<g clip-path="url(#clip0_3453_62636)">
<path d="M11.1375 9.55019H16.9375V3.7502H14.4375V5.25019C13.2 4.22519 11.6375 3.6377 10 3.6377C6.175 3.6377 3.0625 6.7502 3.0625 10.5627C3.0625 14.3752 6.175 17.5002 10 17.5002C13.825 17.5002 16.9375 14.3877 16.9375 10.5627H14.4375C14.4375 13.0127 12.45 15.0002 10 15.0002C7.55 15.0002 5.5625 13.0127 5.5625 10.5627C5.5625 8.1127 7.55 6.1377 10 6.1377C10.9625 6.1377 11.8875 6.4752 12.65 7.0502H11.1375V9.55019Z" fill="#DE3111"/>
</g>
<defs>
<clipPath id="clip0_3453_62636">
<rect width="20" height="20" fill="white"/>
</clipPath>
</defs>
</svg>
