<svg width="24" height="24" viewBox="0 0 24 24" fill="none" xmlns="http://www.w3.org/2000/svg">
<path d="M12 4.62C14.4 4.62 14.685 4.62 15.63 4.68C16.5 4.725 16.98 4.86 17.295 4.995C17.715 5.16 18.015 5.355 18.33 5.67C18.645 5.985 18.84 6.285 19.005 6.705C19.125 7.02 19.275 7.5 19.32 8.37C19.365 9.315 19.38 9.6 19.38 12C19.38 14.4 19.38 14.685 19.32 15.63C19.275 16.5 19.14 16.98 19.005 17.295C18.84 17.715 18.645 18.015 18.33 18.33C18.015 18.645 17.715 18.84 17.295 19.005C16.98 19.125 16.5 19.275 15.63 19.32C14.685 19.365 14.4 19.365 12 19.365C9.6 19.365 9.315 19.365 8.37 19.32C7.5 19.275 7.02 19.14 6.705 19.005C6.285 18.84 5.985 18.645 5.67 18.33C5.355 18.015 5.16 17.715 4.995 17.295C4.875 16.98 4.725 16.5 4.68 15.63C4.635 14.685 4.635 14.4 4.635 12C4.635 9.6 4.635 9.315 4.68 8.37C4.725 7.5 4.86 7.02 4.995 6.705C5.16 6.285 5.355 5.985 5.67 5.67C5.985 5.355 6.285 5.16 6.705 4.995C7.02 4.875 7.5 4.725 8.37 4.68C9.315 4.635 9.6 4.62 12 4.62ZM12 3C9.555 3 9.255 3 8.295 3.06C7.335 3.105 6.69 3.255 6.105 3.48C5.52 3.705 5.01 4.02 4.515 4.515C4.02 5.01 3.705 5.52 3.48 6.105C3.255 6.675 3.105 7.335 3.06 8.295C3.015 9.255 3 9.555 3 12C3 14.445 3 14.745 3.06 15.705C3.105 16.665 3.255 17.31 3.48 17.895C3.705 18.48 4.02 18.99 4.515 19.485C5.01 19.98 5.52 20.295 6.105 20.52C6.675 20.745 7.335 20.895 8.295 20.94C9.255 20.985 9.555 21 12 21C14.445 21 14.745 21 15.705 20.94C16.665 20.895 17.31 20.745 17.895 20.52C18.48 20.295 18.99 19.98 19.485 19.485C19.98 18.99 20.295 18.48 20.52 17.895C20.745 17.325 20.895 16.665 20.94 15.705C20.985 14.745 21 14.445 21 12C21 9.555 21 9.255 20.94 8.295C20.895 7.335 20.745 6.69 20.52 6.105C20.295 5.52 19.98 5.01 19.485 4.515C18.99 4.02 18.48 3.705 17.895 3.48C17.325 3.255 16.665 3.105 15.705 3.06C14.745 3.015 14.445 3 12 3Z" fill="#B3B3B3"/>
<path d="M11.9999 7.37988C9.44988 7.37988 7.37988 9.44988 7.37988 11.9999C7.37988 14.5499 9.44988 16.6199 11.9999 16.6199C14.5499 16.6199 16.6199 14.5499 16.6199 11.9999C16.6199 9.44988 14.5499 7.37988 11.9999 7.37988ZM11.9999 14.9999C10.3499 14.9999 8.99988 13.6499 8.99988 11.9999C8.99988 10.3499 10.3499 8.99988 11.9999 8.99988C13.6499 8.99988 14.9999 10.3499 14.9999 11.9999C14.9999 13.6499 13.6499 14.9999 11.9999 14.9999Z" fill="#B3B3B3"/>
<path d="M17.8807 7.20012C17.8807 7.80012 17.4007 8.28012 16.8007 8.28012C16.2007 8.28012 15.7207 7.80012 15.7207 7.20012C15.7207 6.60012 16.2007 6.12012 16.8007 6.12012C17.4007 6.12012 17.8807 6.60012 17.8807 7.20012Z" fill="#B3B3B3"/>
</svg>
