<svg width="40" height="40" viewBox="0 0 40 40" fill="none" xmlns="http://www.w3.org/2000/svg">
<circle cx="20" cy="20" r="20" fill="#DE3111"/>
<path d="M20 13.85C22 13.85 22.2375 13.85 23.025 13.9C23.75 13.9375 24.15 14.05 24.4125 14.1625C24.7625 14.3 25.0125 14.4625 25.275 14.725C25.5375 14.9875 25.7 15.2375 25.8375 15.5875C25.9375 15.85 26.0625 16.25 26.1 16.975C26.1375 17.7625 26.15 18 26.15 20C26.15 22 26.15 22.2375 26.1 23.025C26.0625 23.75 25.95 24.15 25.8375 24.4125C25.7 24.7625 25.5375 25.0125 25.275 25.275C25.0125 25.5375 24.7625 25.7 24.4125 25.8375C24.15 25.9375 23.75 26.0625 23.025 26.1C22.2375 26.1375 22 26.1375 20 26.1375C18 26.1375 17.7625 26.1375 16.975 26.1C16.25 26.0625 15.85 25.95 15.5875 25.8375C15.2375 25.7 14.9875 25.5375 14.725 25.275C14.4625 25.0125 14.3 24.7625 14.1625 24.4125C14.0625 24.15 13.9375 23.75 13.9 23.025C13.8625 22.2375 13.8625 22 13.8625 20C13.8625 18 13.8625 17.7625 13.9 16.975C13.9375 16.25 14.05 15.85 14.1625 15.5875C14.3 15.2375 14.4625 14.9875 14.725 14.725C14.9875 14.4625 15.2375 14.3 15.5875 14.1625C15.85 14.0625 16.25 13.9375 16.975 13.9C17.7625 13.8625 18 13.85 20 13.85ZM20 12.5C17.9625 12.5 17.7125 12.5 16.9125 12.55C16.1125 12.5875 15.575 12.7125 15.0875 12.9C14.6 13.0875 14.175 13.35 13.7625 13.7625C13.35 14.175 13.0875 14.6 12.9 15.0875C12.7125 15.5625 12.5875 16.1125 12.55 16.9125C12.5125 17.7125 12.5 17.9625 12.5 20C12.5 22.0375 12.5 22.2875 12.55 23.0875C12.5875 23.8875 12.7125 24.425 12.9 24.9125C13.0875 25.4 13.35 25.825 13.7625 26.2375C14.175 26.65 14.6 26.9125 15.0875 27.1C15.5625 27.2875 16.1125 27.4125 16.9125 27.45C17.7125 27.4875 17.9625 27.5 20 27.5C22.0375 27.5 22.2875 27.5 23.0875 27.45C23.8875 27.4125 24.425 27.2875 24.9125 27.1C25.4 26.9125 25.825 26.65 26.2375 26.2375C26.65 25.825 26.9125 25.4 27.1 24.9125C27.2875 24.4375 27.4125 23.8875 27.45 23.0875C27.4875 22.2875 27.5 22.0375 27.5 20C27.5 17.9625 27.5 17.7125 27.45 16.9125C27.4125 16.1125 27.2875 15.575 27.1 15.0875C26.9125 14.6 26.65 14.175 26.2375 13.7625C25.825 13.35 25.4 13.0875 24.9125 12.9C24.4375 12.7125 23.8875 12.5875 23.0875 12.55C22.2875 12.5125 22.0375 12.5 20 12.5Z" fill="white"/>
<path d="M19.9984 16.15C17.8734 16.15 16.1484 17.875 16.1484 20C16.1484 22.125 17.8734 23.85 19.9984 23.85C22.1234 23.85 23.8484 22.125 23.8484 20C23.8484 17.875 22.1234 16.15 19.9984 16.15ZM19.9984 22.5C18.6234 22.5 17.4984 21.375 17.4984 20C17.4984 18.625 18.6234 17.5 19.9984 17.5C21.3734 17.5 22.4984 18.625 22.4984 20C22.4984 21.375 21.3734 22.5 19.9984 22.5Z" fill="white"/>
<path d="M24.9016 16C24.9016 16.5 24.5016 16.9 24.0016 16.9C23.5016 16.9 23.1016 16.5 23.1016 16C23.1016 15.5 23.5016 15.1 24.0016 15.1C24.5016 15.1 24.9016 15.5 24.9016 16Z" fill="white"/>
</svg>
