<svg width="16" height="16" viewBox="0 0 16 16" fill="none" xmlns="http://www.w3.org/2000/svg">
<path d="M14.87 14.95L10.91 13.77C10.01 14.22 9.01 14.46 8 14.46C4.42 14.46 1.5 11.55 1.5 7.98C1.5 4.41 4.42 1.5 8 1.5C11.58 1.5 14.5 4.41 14.5 7.98C14.5 8.94 14.28 9.89 13.88 10.75L14.88 14.95H14.87ZM8 3.5C5.52 3.5 3.5 5.51 3.5 7.98C3.5 10.45 5.52 12.46 8 12.46C8.8 12.46 9.59 12.24 10.29 11.83L10.67 11.61L12.13 12.05L11.76 10.48L11.95 10.14C12.31 9.48 12.51 8.73 12.51 7.98C12.51 5.51 10.49 3.5 8.01 3.5H8Z" fill="black"/>
</svg>
