<svg width="24" height="24" viewBox="0 0 24 24" fill="none" xmlns="http://www.w3.org/2000/svg">
<path d="M22.5 21H1.5V6H6.57L8.07 3H15.93L17.43 6H22.5V21ZM4.5 18H19.5V9H15.57L14.07 6H9.93L8.43 9H4.5V18Z" fill="white"/>
<path d="M12 16.5C9.93 16.5 8.25 14.82 8.25 12.75C8.25 10.68 9.93 9 12 9C14.07 9 15.75 10.68 15.75 12.75C15.75 14.82 14.07 16.5 12 16.5ZM12 12C11.58 12 11.25 12.33 11.25 12.75C11.25 13.17 11.58 13.5 12 13.5C12.42 13.5 12.75 13.17 12.75 12.75C12.75 12.33 12.42 12 12 12Z" fill="white"/>
</svg>
