<svg width="20" height="20" viewBox="0 0 20 20" fill="none" xmlns="http://www.w3.org/2000/svg">
<path d="M10 17.4508L3.325 11.1008C2.3875 10.2008 1.875 9.01329 1.875 7.73829C1.875 6.46329 2.3875 5.27579 3.325 4.37579C5.15 2.63829 8.0875 2.57579 10 4.18829C11.9 2.57579 14.8375 2.62579 16.675 4.37579C17.6125 5.27579 18.125 6.46329 18.125 7.73829C18.125 9.01329 17.6125 10.2008 16.675 11.1008L10 17.4508ZM6.775 5.51329C6.15 5.51329 5.5375 5.73829 5.0625 6.18829C4.625 6.60079 4.3875 7.15079 4.3875 7.73829C4.3875 8.32579 4.625 8.87579 5.0625 9.28829L10.0125 14.0008L14.9625 9.28829C15.4 8.87579 15.6375 8.32579 15.6375 7.73829C15.6375 7.15079 15.4 6.60079 14.9625 6.18829C14.0125 5.28829 12.475 5.28829 11.5375 6.18829L10.025 7.63829L8.5125 6.18829C8.0375 5.73829 7.4125 5.51329 6.8 5.51329H6.775Z" fill="black"/>
</svg>
