<svg width="24" height="24" viewBox="0 0 24 24" fill="none" xmlns="http://www.w3.org/2000/svg">
<path d="M21.315 19.1846L16.335 14.2046C17.16 12.9896 17.64 11.5196 17.64 9.94465C17.64 5.69965 14.19 2.26465 9.96 2.26465C5.73 2.26465 2.25 5.69965 2.25 9.92965C2.25 14.1596 5.7 17.6096 9.93 17.6096C11.505 17.6096 12.975 17.1296 14.19 16.3046L19.17 21.2846L21.285 19.1696L21.315 19.1846ZM5.25 9.92965C5.25 7.34965 7.35 5.24965 9.93 5.24965C12.51 5.24965 14.61 7.34965 14.61 9.92965C14.61 12.5096 12.51 14.6096 9.93 14.6096C7.35 14.6096 5.25 12.5096 5.25 9.92965Z" fill="white"/>
</svg>
