<svg width="25" height="24" viewBox="0 0 25 24" fill="none" xmlns="http://www.w3.org/2000/svg">
<g clip-path="url(#clip0_638_18101)">
<path d="M13.865 11.46H20.825V4.49999H17.825V6.29999C16.34 5.06999 14.465 4.36499 12.5 4.36499C7.90999 4.36499 4.17499 8.09999 4.17499 12.675C4.17499 17.25 7.90999 21 12.5 21C17.09 21 20.825 17.265 20.825 12.675H17.825C17.825 15.615 15.44 18 12.5 18C9.55999 18 7.17499 15.615 7.17499 12.675C7.17499 9.73499 9.55999 7.36499 12.5 7.36499C13.655 7.36499 14.765 7.76999 15.68 8.45999H13.865V11.46Z" fill="black"/>
</g>
<defs>
<clipPath id="clip0_638_18101">
<rect width="24" height="24" fill="white" transform="translate(0.5)"/>
</clipPath>
</defs>
</svg>
