<svg width="20" height="20" viewBox="0 0 20 20" fill="none" xmlns="http://www.w3.org/2000/svg">
<path d="M13.8315 4.85C13.2619 4.19969 12.9479 3.36453 12.9482 2.5H10.3732V12.8333C10.3533 13.3925 10.1172 13.9222 9.71465 14.3108C9.31206 14.6994 8.77438 14.9166 8.21484 14.9167C7.03151 14.9167 6.04818 13.95 6.04818 12.75C6.04818 11.3167 7.43151 10.2417 8.85651 10.6833V8.05C5.98151 7.66667 3.46484 9.9 3.46484 12.75C3.46484 15.525 5.76484 17.5 8.20651 17.5C10.8232 17.5 12.9482 15.375 12.9482 12.75V7.50833C13.9923 8.25821 15.246 8.66054 16.5315 8.65833V6.08333C16.5315 6.08333 14.9648 6.15833 13.8315 4.85Z" fill="white"/>
</svg>
