<svg width="16" height="16" viewBox="0 0 16 16" fill="none" xmlns="http://www.w3.org/2000/svg">
<path d="M8 3.08C9.6 3.08 9.79 3.08 10.42 3.12C11 3.15 11.32 3.24 11.53 3.33C11.81 3.44 12.01 3.57 12.22 3.78C12.43 3.99 12.56 4.19 12.67 4.47C12.75 4.68 12.85 5 12.88 5.58C12.91 6.21 12.92 6.4 12.92 8C12.92 9.6 12.92 9.79 12.88 10.42C12.85 11 12.76 11.32 12.67 11.53C12.56 11.81 12.43 12.01 12.22 12.22C12.01 12.43 11.81 12.56 11.53 12.67C11.32 12.75 11 12.85 10.42 12.88C9.79 12.91 9.6 12.91 8 12.91C6.4 12.91 6.21 12.91 5.58 12.88C5 12.85 4.68 12.76 4.47 12.67C4.19 12.56 3.99 12.43 3.78 12.22C3.57 12.01 3.44 11.81 3.33 11.53C3.25 11.32 3.15 11 3.12 10.42C3.09 9.79 3.09 9.6 3.09 8C3.09 6.4 3.09 6.21 3.12 5.58C3.15 5 3.24 4.68 3.33 4.47C3.44 4.19 3.57 3.99 3.78 3.78C3.99 3.57 4.19 3.44 4.47 3.33C4.68 3.25 5 3.15 5.58 3.12C6.21 3.09 6.4 3.08 8 3.08ZM8 2C6.37 2 6.17 2 5.53 2.04C4.89 2.07 4.46 2.17 4.07 2.32C3.68 2.47 3.34 2.68 3.01 3.01C2.68 3.34 2.47 3.68 2.32 4.07C2.17 4.45 2.07 4.89 2.04 5.53C2.01 6.17 2 6.37 2 8C2 9.63 2 9.83 2.04 10.47C2.07 11.11 2.17 11.54 2.32 11.93C2.47 12.32 2.68 12.66 3.01 12.99C3.34 13.32 3.68 13.53 4.07 13.68C4.45 13.83 4.89 13.93 5.53 13.96C6.17 13.99 6.37 14 8 14C9.63 14 9.83 14 10.47 13.96C11.11 13.93 11.54 13.83 11.93 13.68C12.32 13.53 12.66 13.32 12.99 12.99C13.32 12.66 13.53 12.32 13.68 11.93C13.83 11.55 13.93 11.11 13.96 10.47C13.99 9.83 14 9.63 14 8C14 6.37 14 6.17 13.96 5.53C13.93 4.89 13.83 4.46 13.68 4.07C13.53 3.68 13.32 3.34 12.99 3.01C12.66 2.68 12.32 2.47 11.93 2.32C11.55 2.17 11.11 2.07 10.47 2.04C9.83 2.01 9.63 2 8 2Z" fill="black"/>
<path d="M7.99992 4.92188C6.29992 4.92188 4.91992 6.30187 4.91992 8.00187C4.91992 9.70187 6.29992 11.0819 7.99992 11.0819C9.69992 11.0819 11.0799 9.70187 11.0799 8.00187C11.0799 6.30187 9.69992 4.92188 7.99992 4.92188ZM7.99992 10.0019C6.89992 10.0019 5.99992 9.10187 5.99992 8.00187C5.99992 6.90187 6.89992 6.00187 7.99992 6.00187C9.09992 6.00187 9.99992 6.90187 9.99992 8.00187C9.99992 9.10187 9.09992 10.0019 7.99992 10.0019Z" fill="black"/>
<path d="M11.9205 4.79813C11.9205 5.19813 11.6005 5.51813 11.2005 5.51813C10.8005 5.51813 10.4805 5.19813 10.4805 4.79813C10.4805 4.39813 10.8005 4.07812 11.2005 4.07812C11.6005 4.07812 11.9205 4.39813 11.9205 4.79813Z" fill="black"/>
</svg>
