<svg width="40" height="40" viewBox="0 0 40 40" fill="none" xmlns="http://www.w3.org/2000/svg">
<circle cx="20" cy="20" r="20" fill="#DE3111"/>
<path d="M20.7359 23.1C19.7484 23.1 18.7734 22.725 18.0234 21.975L19.7859 20.2C20.3109 20.725 21.1609 20.725 21.6859 20.2L24.6109 17.275C25.1359 16.75 25.1359 15.9 24.6109 15.375C24.0859 14.85 23.2359 14.85 22.7234 15.375L21.6234 16.475L19.8484 14.7125L20.9484 13.6125C22.4484 12.1125 24.8859 12.1125 26.3734 13.6125C27.8734 15.1125 27.8734 17.55 26.3734 19.0375L23.4484 21.9625C22.6984 22.7125 21.7109 23.0875 20.7359 23.0875V23.1Z" fill="white"/>
<path d="M16.3375 27.5C15.35 27.5 14.375 27.125 13.625 26.375C12.125 24.875 12.125 22.4375 13.625 20.95L16.55 18.025C18.05 16.525 20.4875 16.525 21.975 18.025L20.2125 19.8C19.6875 19.275 18.8375 19.275 18.3125 19.8L15.3875 22.725C14.8625 23.25 14.8625 24.1 15.3875 24.625C15.9125 25.15 16.7625 25.15 17.275 24.625L18.375 23.525L20.15 25.2875L19.05 26.3875C18.3 27.1375 17.3125 27.5125 16.3375 27.5125V27.5Z" fill="white"/>
</svg>
