<svg width="16" height="16" viewBox="0 0 16 16" fill="none" xmlns="http://www.w3.org/2000/svg">
<path d="M8.73965 9.58982L9.04965 10.4198H10.6196L8.76965 5.56982H7.23965L5.38965 10.4198H6.95965L7.26965 9.58982H8.74965H8.73965ZM8.23965 8.22982H7.76965L8.00965 7.58982L8.24965 8.22982H8.23965Z" fill="black"/>
<path d="M13.4501 2.84982V3.77982C12.1201 1.96982 9.99008 0.819824 7.64008 0.819824C4.23008 0.829824 1.33008 3.13982 0.580078 6.44982L2.53008 6.88982C3.07008 4.52982 5.21008 2.81982 7.63008 2.81982C9.49008 2.81982 11.1601 3.81982 12.1001 5.34982H10.9501V7.34982H15.4501V2.84982H13.4501Z" fill="black"/>
<path d="M8.3698 13.1696C6.5098 13.1696 4.8398 12.1696 3.8998 10.6396H5.0498V8.63965H0.549805V13.1396H2.5498V12.2096C3.8798 14.0196 6.0098 15.1696 8.3598 15.1696C11.7598 15.1696 14.6598 12.8596 15.4098 9.53965L13.4598 9.09965C12.9198 11.4596 10.7798 13.1696 8.3598 13.1696H8.3698Z" fill="black"/>
</svg>
