<svg width="20" height="20" viewBox="0 0 20 20" fill="none" xmlns="http://www.w3.org/2000/svg">
<g opacity="0.3">
<path d="M10.7379 13.0998C9.75039 13.0998 8.77539 12.7248 8.02539 11.9748L9.78789 10.1998C10.3129 10.7248 11.1629 10.7248 11.6879 10.1998L14.6129 7.27481C15.1379 6.7498 15.1379 5.8998 14.6129 5.3748C14.0879 4.8498 13.2379 4.8498 12.7254 5.3748L11.6254 6.4748L9.85039 4.7123L10.9504 3.6123C12.4504 2.1123 14.8879 2.1123 16.3754 3.6123C17.8754 5.1123 17.8754 7.5498 16.3754 9.0373L13.4504 11.9623C12.7004 12.7123 11.7129 13.0873 10.7379 13.0873V13.0998Z" fill="white"/>
<path d="M6.3375 17.4994C5.35 17.4994 4.375 17.1244 3.625 16.3744C2.125 14.8744 2.125 12.4369 3.625 10.9494L6.55 8.02441C8.05 6.52441 10.4875 6.52441 11.975 8.02441L10.2125 9.79941C9.6875 9.27441 8.8375 9.27441 8.3125 9.79941L5.3875 12.7244C4.8625 13.2494 4.8625 14.0994 5.3875 14.6244C5.9125 15.1494 6.7625 15.1494 7.275 14.6244L8.375 13.5244L10.15 15.2869L9.05 16.3869C8.3 17.1369 7.3125 17.5119 6.3375 17.5119V17.4994Z" fill="white"/>
</g>
</svg>
