<svg width="24" height="24" viewBox="0 0 24 24" fill="none" xmlns="http://www.w3.org/2000/svg">
<path d="M21.315 19.185L18.585 16.455C19.635 14.985 20.25 13.185 20.25 11.25C20.25 6.285 16.215 2.25 11.25 2.25C6.285 2.25 2.25 6.285 2.25 11.25C2.25 16.215 6.285 20.25 11.25 20.25C13.185 20.25 14.985 19.62 16.455 18.585L19.185 21.315L21.3 19.2L21.315 19.185ZM5.25 11.25C5.25 7.935 7.935 5.25 11.25 5.25C14.565 5.25 17.25 7.935 17.25 11.25C17.25 14.565 14.565 17.25 11.25 17.25C7.935 17.25 5.25 14.565 5.25 11.25Z" fill="white"/>
<path d="M12.75 7.5H9.75V9.75H7.5V12.75H9.75V15H12.75V12.75H15V9.75H12.75V7.5Z" fill="white"/>
</svg>
