<svg width="14" height="12" viewBox="0 0 14 12" fill="none" xmlns="http://www.w3.org/2000/svg">
<path id="Vector" d="M7 11.96L1.66 6.88005C0.91 6.16005 0.5 5.21005 0.5 4.19005C0.5 3.17005 0.91 2.22005 1.66 1.50005C3.12 0.110047 5.47 0.0600473 7 1.35005C8.52 0.0600473 10.87 0.100047 12.34 1.50005C13.09 2.22005 13.5 3.17005 13.5 4.19005C13.5 5.21005 13.09 6.16005 12.34 6.88005L7 11.96ZM4.42 2.41005C3.92 2.41005 3.43 2.59005 3.05 2.95005C2.7 3.28005 2.51 3.72005 2.51 4.19005C2.51 4.66005 2.7 5.10005 3.05 5.43005L7.01 9.20005L10.97 5.43005C11.32 5.10005 11.51 4.66005 11.51 4.19005C11.51 3.72005 11.32 3.28005 10.97 2.95005C10.21 2.23005 8.98 2.23005 8.23 2.95005L7.02 4.11005L5.81 2.95005C5.43 2.59005 4.93 2.41005 4.44 2.41005H4.42Z" fill="#DE3111"/>
</svg>
