<svg width="20" height="20" viewBox="0 0 20 20" fill="none" xmlns="http://www.w3.org/2000/svg">
<path d="M18.5875 18.6875L13.6375 17.2125C12.5125 17.775 11.2625 18.075 10 18.075C5.525 18.075 1.875 14.4375 1.875 9.975C1.875 5.5125 5.525 1.875 10 1.875C14.475 1.875 18.125 5.5125 18.125 9.975C18.125 11.175 17.85 12.3625 17.35 13.4375L18.6 18.6875H18.5875ZM10 4.375C6.9 4.375 4.375 6.8875 4.375 9.975C4.375 13.0625 6.9 15.575 10 15.575C11 15.575 11.9875 15.3 12.8625 14.7875L13.3375 14.5125L15.1625 15.0625L14.7 13.1L14.9375 12.675C15.3875 11.85 15.6375 10.9125 15.6375 9.975C15.6375 6.8875 13.1125 4.375 10.0125 4.375H10Z" fill="black"/>
</svg>
