<svg width="40" height="40" viewBox="0 0 40 40" fill="none" xmlns="http://www.w3.org/2000/svg">
<circle cx="20" cy="20" r="20" fill="black"/>
<path d="M20.7379 23.0998C19.7504 23.0998 18.7754 22.7248 18.0254 21.9748L19.7879 20.1998C20.3129 20.7248 21.1629 20.7248 21.6879 20.1998L24.6129 17.2748C25.1379 16.7498 25.1379 15.8998 24.6129 15.3748C24.0879 14.8498 23.2379 14.8498 22.7254 15.3748L21.6254 16.4748L19.8504 14.7123L20.9504 13.6123C22.4504 12.1123 24.8879 12.1123 26.3754 13.6123C27.8754 15.1123 27.8754 17.5498 26.3754 19.0373L23.4504 21.9623C22.7004 22.7123 21.7129 23.0873 20.7379 23.0873V23.0998Z" fill="white"/>
<path d="M16.3375 27.4999C15.35 27.4999 14.375 27.1249 13.625 26.3749C12.125 24.8749 12.125 22.4374 13.625 20.9499L16.55 18.0249C18.05 16.5249 20.4875 16.5249 21.975 18.0249L20.2125 19.7999C19.6875 19.2749 18.8375 19.2749 18.3125 19.7999L15.3875 22.7249C14.8625 23.2499 14.8625 24.0999 15.3875 24.6249C15.9125 25.1499 16.7625 25.1499 17.275 24.6249L18.375 23.5249L20.15 25.2874L19.05 26.3874C18.3 27.1374 17.3125 27.5124 16.3375 27.5124V27.4999Z" fill="white"/>
</svg>
