<svg width="24" height="24" viewBox="0 0 24 24" fill="none" xmlns="http://www.w3.org/2000/svg">
<path d="M12 17.25C14.8995 17.25 17.25 14.8995 17.25 12C17.25 9.10051 14.8995 6.75 12 6.75C9.10051 6.75 6.75 9.10051 6.75 12C6.75 14.8995 9.10051 17.25 12 17.25Z" fill="white"/>
<path d="M12 0.75L9.75 5.25H14.25L12 0.75Z" fill="white"/>
<path d="M4.0498 4.04883L5.6398 8.81883L8.81981 5.63883L4.0498 4.04883Z" fill="white"/>
<path d="M0.75 12L5.25 14.25V9.75L0.75 12Z" fill="white"/>
<path d="M4.0498 19.9487L8.81981 18.3587L5.6398 15.1787L4.0498 19.9487Z" fill="white"/>
<path d="M12 23.25L14.25 18.75H9.75L12 23.25Z" fill="white"/>
<path d="M19.9502 19.9487L18.3602 15.1787L15.1802 18.3587L19.9502 19.9487Z" fill="white"/>
<path d="M23.25 12L18.75 9.75V14.25L23.25 12Z" fill="white"/>
<path d="M19.9502 4.04883L15.1802 5.63883L18.3602 8.81883L19.9502 4.04883Z" fill="white"/>
</svg>
