<svg width="20" height="20" viewBox="0 0 20 20" fill="none" xmlns="http://www.w3.org/2000/svg">
<path d="M10 3.85C12 3.85 12.2375 3.85 13.025 3.9C13.75 3.9375 14.15 4.05 14.4125 4.1625C14.7625 4.3 15.0125 4.4625 15.275 4.725C15.5375 4.9875 15.7 5.2375 15.8375 5.5875C15.9375 5.85 16.0625 6.25 16.1 6.975C16.1375 7.7625 16.15 8 16.15 10C16.15 12 16.15 12.2375 16.1 13.025C16.0625 13.75 15.95 14.15 15.8375 14.4125C15.7 14.7625 15.5375 15.0125 15.275 15.275C15.0125 15.5375 14.7625 15.7 14.4125 15.8375C14.15 15.9375 13.75 16.0625 13.025 16.1C12.2375 16.1375 12 16.1375 10 16.1375C8 16.1375 7.7625 16.1375 6.975 16.1C6.25 16.0625 5.85 15.95 5.5875 15.8375C5.2375 15.7 4.9875 15.5375 4.725 15.275C4.4625 15.0125 4.3 14.7625 4.1625 14.4125C4.0625 14.15 3.9375 13.75 3.9 13.025C3.8625 12.2375 3.8625 12 3.8625 10C3.8625 8 3.8625 7.7625 3.9 6.975C3.9375 6.25 4.05 5.85 4.1625 5.5875C4.3 5.2375 4.4625 4.9875 4.725 4.725C4.9875 4.4625 5.2375 4.3 5.5875 4.1625C5.85 4.0625 6.25 3.9375 6.975 3.9C7.7625 3.8625 8 3.85 10 3.85ZM10 2.5C7.9625 2.5 7.7125 2.5 6.9125 2.55C6.1125 2.5875 5.575 2.7125 5.0875 2.9C4.6 3.0875 4.175 3.35 3.7625 3.7625C3.35 4.175 3.0875 4.6 2.9 5.0875C2.7125 5.5625 2.5875 6.1125 2.55 6.9125C2.5125 7.7125 2.5 7.9625 2.5 10C2.5 12.0375 2.5 12.2875 2.55 13.0875C2.5875 13.8875 2.7125 14.425 2.9 14.9125C3.0875 15.4 3.35 15.825 3.7625 16.2375C4.175 16.65 4.6 16.9125 5.0875 17.1C5.5625 17.2875 6.1125 17.4125 6.9125 17.45C7.7125 17.4875 7.9625 17.5 10 17.5C12.0375 17.5 12.2875 17.5 13.0875 17.45C13.8875 17.4125 14.425 17.2875 14.9125 17.1C15.4 16.9125 15.825 16.65 16.2375 16.2375C16.65 15.825 16.9125 15.4 17.1 14.9125C17.2875 14.4375 17.4125 13.8875 17.45 13.0875C17.4875 12.2875 17.5 12.0375 17.5 10C17.5 7.9625 17.5 7.7125 17.45 6.9125C17.4125 6.1125 17.2875 5.575 17.1 5.0875C16.9125 4.6 16.65 4.175 16.2375 3.7625C15.825 3.35 15.4 3.0875 14.9125 2.9C14.4375 2.7125 13.8875 2.5875 13.0875 2.55C12.2875 2.5125 12.0375 2.5 10 2.5Z" fill="white"/>
<path d="M10.0004 6.15002C7.87539 6.15002 6.15039 7.87502 6.15039 10C6.15039 12.125 7.87539 13.85 10.0004 13.85C12.1254 13.85 13.8504 12.125 13.8504 10C13.8504 7.87502 12.1254 6.15002 10.0004 6.15002ZM10.0004 12.5C8.62539 12.5 7.50039 11.375 7.50039 10C7.50039 8.62502 8.62539 7.50002 10.0004 7.50002C11.3754 7.50002 12.5004 8.62502 12.5004 10C12.5004 11.375 11.3754 12.5 10.0004 12.5Z" fill="white"/>
<path d="M14.9016 5.99998C14.9016 6.49998 14.5016 6.89998 14.0016 6.89998C13.5016 6.89998 13.1016 6.49998 13.1016 5.99998C13.1016 5.49998 13.5016 5.09998 14.0016 5.09998C14.5016 5.09998 14.9016 5.49998 14.9016 5.99998Z" fill="white"/>
</svg>
