<svg width="24" height="24" viewBox="0 0 24 24" fill="none" xmlns="http://www.w3.org/2000/svg">
<path d="M14.25 3.75H9.75C5.205 3.75 1.5 7.455 1.5 12C1.5 16.545 5.205 20.25 9.75 20.25H14.25C18.795 20.25 22.5 16.545 22.5 12C22.5 7.455 18.795 3.75 14.25 3.75ZM16.5 12C16.5 13.245 15.495 14.25 14.25 14.25H9.75C8.505 14.25 7.5 13.245 7.5 12C7.5 10.755 8.505 9.75 9.75 9.75H14.25C15.495 9.75 16.5 10.755 16.5 12ZM14.25 8.25H12.75V6.75H14.25V8.25ZM14.25 17.25H9.75C6.855 17.25 4.5 14.895 4.5 12C4.5 9.105 6.855 6.75 9.75 6.75H11.25V8.25H9.75C7.68 8.25 6 9.93 6 12C6 14.07 7.68 15.75 9.75 15.75H14.25C16.32 15.75 18 14.07 18 12C18 10.47 17.07 9.15 15.75 8.565V6.99C17.91 7.635 19.5 9.63 19.5 12C19.5 14.895 17.145 17.25 14.25 17.25Z" fill="white"/>
</svg>
