<svg width="16" height="16" viewBox="0 0 16 16" fill="none" xmlns="http://www.w3.org/2000/svg">
<path d="M8.59 10.48C7.8 10.48 7.02 10.18 6.42 9.57999L7.83 8.15999C8.25 8.57999 8.93 8.57999 9.35 8.15999L11.69 5.81999C12.11 5.39999 12.11 4.71999 11.69 4.29999C11.27 3.87999 10.59 3.87999 10.18 4.29999L9.3 5.17999L7.88 3.76999L8.76 2.88999C9.96 1.68999 11.91 1.68999 13.1 2.88999C14.3 4.08999 14.3 6.03999 13.1 7.22999L10.76 9.56999C10.16 10.17 9.37 10.47 8.59 10.47V10.48Z" fill="#FF0000"/>
<path d="M5.07 14C4.28 14 3.5 13.7 2.9 13.1C1.7 11.9 1.7 9.94999 2.9 8.75999L5.24 6.41999C6.44 5.21999 8.39 5.21999 9.58 6.41999L8.17 7.83999C7.75 7.41999 7.07 7.41999 6.65 7.83999L4.31 10.18C3.89 10.6 3.89 11.28 4.31 11.7C4.73 12.12 5.41 12.12 5.82 11.7L6.7 10.82L8.12 12.23L7.24 13.11C6.64 13.71 5.85 14.01 5.07 14.01V14Z" fill="#FF0000"/>
</svg>
