<svg width="25" height="24" viewBox="0 0 25 24" fill="none" xmlns="http://www.w3.org/2000/svg">
<g clip-path="url(#clip0_638_22176)">
<path d="M13.865 11.46H20.8251V4.49999H17.8251V6.29999C16.3401 5.06999 14.465 4.36499 12.5 4.36499C7.91005 4.36499 4.17505 8.09999 4.17505 12.675C4.17505 17.25 7.91005 21 12.5 21C17.09 21 20.8251 17.265 20.8251 12.675H17.8251C17.8251 15.615 15.4401 18 12.5 18C9.56005 18 7.17505 15.615 7.17505 12.675C7.17505 9.73499 9.56005 7.36499 12.5 7.36499C13.6551 7.36499 14.765 7.76999 15.68 8.45999H13.865V11.46Z" fill="#DE3111"/>
</g>
<defs>
<clipPath id="clip0_638_22176">
<rect width="24" height="24" fill="white" transform="translate(0.5)"/>
</clipPath>
</defs>
</svg>
