<svg width="20" height="20" viewBox="0 0 20 20" fill="none" xmlns="http://www.w3.org/2000/svg">
<path d="M13.2075 6.78333C13.5325 6.78333 13.8492 6.80833 14.1575 6.85C13.5909 4.375 10.9909 2.5 7.86588 2.5C4.32422 2.5 1.44922 4.9 1.44922 7.85833C1.44922 9.56667 2.40755 11.075 3.89922 12.0583L3.05755 13.75L5.35755 12.7583C5.84922 12.9333 6.36588 13.075 6.91588 13.15C6.84088 12.825 6.79922 12.4917 6.79922 12.1417C6.79088 9.19167 9.66588 6.78333 13.2075 6.78333ZM9.99922 4.90833C10.1043 4.90833 10.2083 4.92903 10.3054 4.96923C10.4024 5.00943 10.4906 5.06836 10.5649 5.14265C10.6392 5.21693 10.6981 5.30513 10.7383 5.40219C10.7785 5.49925 10.7992 5.60328 10.7992 5.70833C10.7992 5.81339 10.7785 5.91742 10.7383 6.01448C10.6981 6.11154 10.6392 6.19973 10.5649 6.27402C10.4906 6.34831 10.4024 6.40723 10.3054 6.44744C10.2083 6.48764 10.1043 6.50833 9.99922 6.50833C9.78704 6.50833 9.58356 6.42405 9.43353 6.27402C9.2835 6.12399 9.19922 5.92051 9.19922 5.70833C9.19922 5.49616 9.2835 5.29268 9.43353 5.14265C9.58356 4.99262 9.78704 4.90833 9.99922 4.90833ZM5.72422 6.51667C5.51204 6.51667 5.30856 6.43238 5.15853 6.28235C5.0085 6.13232 4.92422 5.92884 4.92422 5.71667C4.92422 5.50449 5.0085 5.30101 5.15853 5.15098C5.30856 5.00095 5.51204 4.91667 5.72422 4.91667C5.93639 4.91667 6.13987 5.00095 6.2899 5.15098C6.43993 5.30101 6.52422 5.50449 6.52422 5.71667C6.52422 5.92884 6.43993 6.13232 6.2899 6.28235C6.13987 6.43238 5.93639 6.51667 5.72422 6.51667Z" fill="white"/>
<path d="M18.5505 12.1408C18.5505 9.77409 16.1589 7.85742 13.2089 7.85742C10.2589 7.85742 7.86719 9.77409 7.86719 12.1408C7.86719 14.5074 10.2589 16.4241 13.2089 16.4241C13.6922 16.4241 14.1589 16.3574 14.6005 16.2574L17.4839 17.4991L16.4839 15.4991C17.7339 14.7158 18.5505 13.5158 18.5505 12.1408ZM11.6005 11.8741C11.4423 11.8741 11.2876 11.8272 11.1561 11.7393C11.0245 11.6514 10.922 11.5264 10.8614 11.3802C10.8009 11.2341 10.785 11.0732 10.8159 10.918C10.8468 10.7628 10.923 10.6203 11.0348 10.5084C11.1467 10.3965 11.2893 10.3203 11.4444 10.2895C11.5996 10.2586 11.7605 10.2744 11.9067 10.335C12.0528 10.3955 12.1778 10.4981 12.2657 10.6296C12.3536 10.7612 12.4005 10.9159 12.4005 11.0741C12.4089 11.5158 12.0422 11.8741 11.6005 11.8741ZM14.8089 11.8741C14.5967 11.8741 14.3932 11.7898 14.2432 11.6398C14.0931 11.4897 14.0089 11.2863 14.0089 11.0741C14.0089 10.8619 14.0931 10.6584 14.2432 10.5084C14.3932 10.3584 14.5967 10.2741 14.8089 10.2741C15.021 10.2741 15.2245 10.3584 15.3745 10.5084C15.5246 10.6584 15.6089 10.8619 15.6089 11.0741C15.6089 11.2863 15.5246 11.4897 15.3745 11.6398C15.2245 11.7898 15.021 11.8741 14.8089 11.8741Z" fill="white"/>
</svg>
