<svg width="16" height="16" viewBox="0 0 16 16" fill="none" xmlns="http://www.w3.org/2000/svg">
<path d="M11.9995 3.7402V4.1602C10.9295 2.9502 9.36953 2.2002 7.66953 2.2002C4.94953 2.2002 2.61953 4.0502 2.01953 6.7102L3.96953 7.1502C4.35953 5.4402 5.90953 4.2002 7.66953 4.2002C8.97953 4.2002 10.1595 4.8702 10.8495 5.9302H9.79953V7.93019H13.9995V3.7402H11.9995Z" fill="#DE3111"/>
<path d="M8.33 11.7901C7.02 11.7901 5.84 11.1201 5.15 10.0601H6.2V8.06006H2V12.2601H4V11.8401C5.07 13.0501 6.63 13.8001 8.33 13.8001C11.05 13.8001 13.38 11.9501 13.98 9.29006L12.03 8.85006C11.64 10.5601 10.09 11.8001 8.33 11.8001V11.7901Z" fill="#DE3111"/>
</svg>
