<svg width="25" height="24" viewBox="0 0 25 24" fill="none" xmlns="http://www.w3.org/2000/svg">
<path d="M14.1004 8.8002H3.70039C3.48822 8.8002 3.28473 8.71591 3.13471 8.56588C2.98468 8.41585 2.90039 8.21237 2.90039 8.0002C2.90039 7.78802 2.98468 7.58454 3.13471 7.43451C3.28473 7.28448 3.48822 7.2002 3.70039 7.2002H14.1004C14.3126 7.2002 14.516 7.28448 14.6661 7.43451C14.8161 7.58454 14.9004 7.78802 14.9004 8.0002C14.9004 8.21237 14.8161 8.41585 14.6661 8.56588C14.516 8.71591 14.3126 8.8002 14.1004 8.8002ZM21.3004 8.8002H18.1004C17.8882 8.8002 17.6847 8.71591 17.5347 8.56588C17.3847 8.41585 17.3004 8.21237 17.3004 8.0002C17.3004 7.78802 17.3847 7.58454 17.5347 7.43451C17.6847 7.28448 17.8882 7.2002 18.1004 7.2002H21.3004C21.5126 7.2002 21.716 7.28448 21.8661 7.43451C22.0161 7.58454 22.1004 7.78802 22.1004 8.0002C22.1004 8.21237 22.0161 8.41585 21.8661 8.56588C21.716 8.71591 21.5126 8.8002 21.3004 8.8002Z" fill="white"/>
<path d="M16.1004 10.8002C15.5466 10.8002 15.0053 10.636 14.5448 10.3283C14.0843 10.0206 13.7255 9.58334 13.5135 9.07171C13.3016 8.56008 13.2462 7.99709 13.3542 7.45394C13.4622 6.9108 13.7289 6.41188 14.1205 6.0203C14.5121 5.62871 15.011 5.36204 15.5541 5.254C16.0973 5.14596 16.6603 5.20141 17.1719 5.41333C17.6835 5.62526 18.1208 5.98414 18.4285 6.4446C18.7362 6.90506 18.9004 7.44641 18.9004 8.0002C18.9004 8.7428 18.6054 9.45499 18.0803 9.9801C17.5552 10.5052 16.843 10.8002 16.1004 10.8002ZM16.1004 6.8002C15.8631 6.8002 15.631 6.87057 15.4337 7.00243C15.2364 7.13429 15.0826 7.32171 14.9917 7.54098C14.9009 7.76025 14.8771 8.00153 14.9234 8.23431C14.9697 8.46708 15.084 8.6809 15.2519 8.84872C15.4197 9.01655 15.6335 9.13084 15.8663 9.17714C16.0991 9.22344 16.3403 9.19968 16.5596 9.10885C16.7789 9.01803 16.9663 8.86422 17.0982 8.66688C17.23 8.46954 17.3004 8.23753 17.3004 8.0002C17.3004 7.68194 17.174 7.37671 16.9489 7.15167C16.7239 6.92662 16.4186 6.8002 16.1004 6.8002ZM21.3004 16.8002H10.9004C10.6882 16.8002 10.4847 16.7159 10.3347 16.5659C10.1847 16.4159 10.1004 16.2124 10.1004 16.0002C10.1004 15.788 10.1847 15.5845 10.3347 15.4345C10.4847 15.2845 10.6882 15.2002 10.9004 15.2002H21.3004C21.5126 15.2002 21.716 15.2845 21.8661 15.4345C22.0161 15.5845 22.1004 15.788 22.1004 16.0002C22.1004 16.2124 22.0161 16.4159 21.8661 16.5659C21.716 16.7159 21.5126 16.8002 21.3004 16.8002ZM6.90039 16.8002H3.70039C3.48822 16.8002 3.28473 16.7159 3.13471 16.5659C2.98468 16.4159 2.90039 16.2124 2.90039 16.0002C2.90039 15.788 2.98468 15.5845 3.13471 15.4345C3.28473 15.2845 3.48822 15.2002 3.70039 15.2002H6.90039C7.11256 15.2002 7.31605 15.2845 7.46608 15.4345C7.6161 15.5845 7.70039 15.788 7.70039 16.0002C7.70039 16.2124 7.6161 16.4159 7.46608 16.5659C7.31605 16.7159 7.11256 16.8002 6.90039 16.8002Z" fill="white"/>
<path d="M8.89961 18.8002C8.34582 18.8002 7.80447 18.636 7.34401 18.3283C6.88356 18.0206 6.52467 17.5833 6.31275 17.0717C6.10082 16.5601 6.04537 15.9971 6.15341 15.4539C6.26145 14.9108 6.52812 14.4119 6.91971 14.0203C7.3113 13.6287 7.81021 13.362 8.35336 13.254C8.8965 13.146 9.45949 13.2014 9.97112 13.4133C10.4828 13.6253 10.9201 13.9841 11.2277 14.4446C11.5354 14.9051 11.6996 15.4464 11.6996 16.0002C11.6996 16.7428 11.4046 17.455 10.8795 17.9801C10.3544 18.5052 9.64222 18.8002 8.89961 18.8002ZM8.89961 14.8002C8.66227 14.8002 8.43027 14.8706 8.23293 15.0024C8.03559 15.1343 7.88178 15.3217 7.79095 15.541C7.70013 15.7602 7.67637 16.0015 7.72267 16.2343C7.76897 16.4671 7.88326 16.6809 8.05108 16.8487C8.21891 17.0165 8.43272 17.1308 8.6655 17.1771C8.89828 17.2234 9.13956 17.1997 9.35883 17.1089C9.5781 17.018 9.76552 16.8642 9.89737 16.6669C10.0292 16.4695 10.0996 16.2375 10.0996 16.0002C10.0996 15.6819 9.97318 15.3767 9.74814 15.1517C9.5231 14.9266 9.21787 14.8002 8.89961 14.8002Z" fill="white"/>
</svg>
