<svg width="16" height="16" viewBox="0 0 16 16" fill="none" xmlns="http://www.w3.org/2000/svg">
<path d="M8 13.9591L2.66 8.87907C1.91 8.15907 1.5 7.20907 1.5 6.18907C1.5 5.16907 1.91 4.21907 2.66 3.49907C4.12 2.10907 6.47 2.05907 8 3.34907C9.52 2.05907 11.87 2.09907 13.34 3.49907C14.09 4.21907 14.5 5.16907 14.5 6.18907C14.5 7.20907 14.09 8.15907 13.34 8.87907L8 13.9591ZM5.42 4.40907C4.92 4.40907 4.43 4.58907 4.05 4.94907C3.7 5.27907 3.51 5.71907 3.51 6.18907C3.51 6.65907 3.7 7.09907 4.05 7.42907L8.01 11.1991L11.97 7.42907C12.32 7.09907 12.51 6.65907 12.51 6.18907C12.51 5.71907 12.32 5.27907 11.97 4.94907C11.21 4.22907 9.98 4.22907 9.23 4.94907L8.02 6.10907L6.81 4.94907C6.43 4.58907 5.93 4.40907 5.44 4.40907H5.42Z" fill="black"/>
</svg>
