<svg width="16" height="16" viewBox="0 0 16 16" fill="none" xmlns="http://www.w3.org/2000/svg">
<path d="M9.84086 11.7705L9.13086 11.0605C10.8209 9.37047 10.8209 6.63047 9.13086 4.94047L9.84086 4.23047C11.9209 6.31047 11.9209 9.68047 9.84086 11.7605V11.7705Z" fill="black"/>
<path d="M11.8506 13.7992L11.1406 13.0892C12.5006 11.7292 13.2506 9.91922 13.2506 7.99922C13.2506 6.07922 12.5006 4.26922 11.1406 2.90922L11.8506 2.19922C13.4006 3.74922 14.2506 5.80922 14.2506 7.99922C14.2506 10.1892 13.4006 12.2492 11.8506 13.7992Z" fill="black"/>
<path d="M7.55 3.84766V12.1477L4.24 10.0677H1.75V5.92766H4.24L7.55 3.84766Z" fill="black"/>
</svg>
