<svg width="16" height="16" viewBox="0 0 16 16" fill="none" xmlns="http://www.w3.org/2000/svg">
<path d="M14.71 4.61031C14.55 4.00031 14.07 3.53031 13.47 3.36031C12.38 3.07031 8 3.07031 8 3.07031C8 3.07031 3.62 3.07031 2.53 3.36031C1.93 3.52031 1.45 4.00031 1.29 4.61031C1 5.71031 1 8.00031 1 8.00031C1 8.00031 1 10.2903 1.29 11.3903C1.45 12.0003 1.93 12.4703 2.53 12.6403C3.62 12.9303 8 12.9303 8 12.9303C8 12.9303 12.38 12.9303 13.47 12.6403C14.07 12.4803 14.55 12.0003 14.71 11.3903C15 10.2903 15 8.00031 15 8.00031C15 8.00031 15 5.71031 14.71 4.61031ZM6.57 10.0803V5.92031L10.23 8.00031L6.57 10.0803Z" fill="black"/>
</svg>
